<svg width="22" height="26" viewBox="0 0 22 26" fill="none" xmlns="http://www.w3.org/2000/svg">
<path d="M20.2663 0.52905C14.1083 -0.17635 7.89277 -0.17635 1.73478 0.52905C1.38685 0.568702 1.05575 0.703603 0.77622 0.919599C0.49669 1.13559 0.279037 1.42472 0.146098 1.75664C0.0131596 2.08856 -0.0301625 2.45103 0.0206774 2.80602C0.0715174 3.16101 0.214645 3.49543 0.435042 3.77419L5.78881 10.5571C7.32244 12.5002 8.15928 14.9237 8.15958 17.423V21.9974C8.15946 22.1689 8.19875 22.338 8.27426 22.491C8.34978 22.644 8.4594 22.7767 8.59424 22.8782L12.5304 25.8365C12.6532 25.9288 12.7985 25.9844 12.9503 25.9972C13.1021 26.0099 13.2544 25.9793 13.3902 25.9087C13.526 25.8381 13.6401 25.7303 13.7198 25.5973C13.7994 25.4643 13.8416 25.3113 13.8415 25.1552V17.423C13.8419 14.9231 14.6792 12.499 16.2137 10.5557L21.566 3.77128C21.786 3.49251 21.9288 3.15822 21.9795 2.80344C22.0301 2.44866 21.9867 2.08645 21.8538 1.75477C21.7209 1.42309 21.5034 1.13416 21.2241 0.918255C20.9448 0.702348 20.614 0.568869 20.2663 0.52905Z" fill="#4084FF"/>
</svg>
