<svg width="72" height="82" viewBox="0 0 72 82" fill="none" xmlns="http://www.w3.org/2000/svg">
<path d="M60.5769 72.6923C60.5769 74.3492 59.2338 75.6923 57.5769 75.6923H8.96154C7.30469 75.6923 5.96154 74.3492 5.96154 72.6923V15.6154C5.96154 13.9585 7.30468 12.6154 8.96154 12.6154H30.2692C31.9261 12.6154 33.2692 11.2722 33.2692 9.61539V9.30769C33.2692 7.65084 31.9261 6.30769 30.2692 6.30769H5.96154C4.51349 6.30936 3.12517 6.97446 2.10125 8.15702C1.07732 9.33958 0.501446 10.943 0.5 12.6154V75.6923C0.501446 77.3647 1.07732 78.9681 2.10125 80.1507C3.12517 81.3332 4.51349 81.9983 5.96154 82H60.5769C62.025 81.9983 63.4133 81.3332 64.4372 80.1507C65.4611 78.9681 66.037 77.3647 66.0385 75.6923V46.8846C66.0385 45.3765 64.8158 44.1538 63.3077 44.1538C61.7995 44.1538 60.5769 45.3765 60.5769 46.8846V72.6923Z" fill="#4084FF"/>
<path d="M60.5769 72.6923C60.5769 74.3492 59.2338 75.6923 57.5769 75.6923H8.96154C7.30469 75.6923 5.96154 74.3492 5.96154 72.6923V15.6154C5.96154 13.9585 7.30468 12.6154 8.96154 12.6154H30.2692C31.9261 12.6154 33.2692 11.2722 33.2692 9.61539V9.30769C33.2692 7.65084 31.9261 6.30769 30.2692 6.30769H5.96154C4.51349 6.30936 3.12517 6.97446 2.10125 8.15702C1.07732 9.33958 0.501446 10.943 0.5 12.6154V75.6923C0.501446 77.3647 1.07732 78.9681 2.10125 80.1507C3.12517 81.3332 4.51349 81.9983 5.96154 82H60.5769C62.025 81.9983 63.4133 81.3332 64.4372 80.1507C65.4611 78.9681 66.037 77.3647 66.0385 75.6923V46.8846C66.0385 45.3765 64.8158 44.1538 63.3077 44.1538C61.7995 44.1538 60.5769 45.3765 60.5769 46.8846V72.6923Z" fill="#4084FF"/>
<path d="M63.5769 12.6154C61.9201 12.6154 60.5769 11.2722 60.5769 9.61539V2.73077C60.5769 1.22261 59.3543 0 57.8462 0C56.338 0 55.1154 1.22261 55.1154 2.73077V9.61539C55.1154 11.2722 53.7722 12.6154 52.1154 12.6154H47.1923C45.5355 12.6154 44.1923 13.9585 44.1923 15.6154V15.9231C44.1923 17.5799 45.5355 18.9231 47.1923 18.9231H52.1154C53.7722 18.9231 55.1154 20.2662 55.1154 21.9231V28.8077C55.1154 30.3159 56.338 31.5385 57.8462 31.5385C59.3543 31.5385 60.5769 30.3159 60.5769 28.8077V21.9231C60.5769 20.2662 61.9201 18.9231 63.5769 18.9231H68.5C70.1569 18.9231 71.5 17.5799 71.5 15.9231V15.6154C71.5 13.9585 70.1569 12.6154 68.5 12.6154H63.5769Z" fill="#4084FF"/>
</svg>
