<svg width="33" height="39" viewBox="0 0 33 39" fill="none" xmlns="http://www.w3.org/2000/svg">
<path d="M16.5 39C17.9776 39 19.4666 38.7311 20.5114 37.7701C20.979 37.34 21.2958 36.9103 21.5032 36.4449C21.9529 35.436 20.9531 34.4903 19.8486 34.4903H16.5H13.1514C12.0469 34.4903 11.0471 35.436 11.4968 36.4449C11.7042 36.9103 12.021 37.34 12.4886 37.7701C13.5334 38.7311 15.0224 39 16.5 39ZM19.2718 2.8182C19.3107 2.46192 19.2679 2.1021 19.1463 1.76194C19.0247 1.42179 18.827 1.10886 18.5658 0.843319C18.3047 0.577783 17.9859 0.365542 17.6301 0.220285C17.2743 0.0750281 16.8893 -2.05263e-05 16.5 -2.05263e-05C16.1107 -2.05263e-05 15.7257 0.0750281 15.3699 0.220285C15.0141 0.365542 14.6953 0.577783 14.4342 0.843319C14.173 1.10886 13.9753 1.42179 13.8537 1.76194C13.7321 2.1021 13.6893 2.46192 13.7282 2.8182C10.5791 3.40638 7.74794 4.978 5.71459 7.2667C3.68124 9.55539 2.57078 12.4204 2.57143 15.3761C2.57143 17.1457 2.02034 22.7718 0.571541 27.3403C-0.0385704 29.2642 2.06921 33.3122 4.08751 33.3122H28.9125C30.9308 33.3122 33.0386 29.2642 32.4285 27.3403C30.9797 22.7718 30.4286 17.1457 30.4286 15.3761C30.4286 9.17528 25.6371 3.99942 19.2718 2.8182Z" fill="white"/>
</svg>
