<svg width="42" height="42" viewBox="0 0 42 42" fill="none" xmlns="http://www.w3.org/2000/svg">
<path d="M20.9919 15.2817C22.4738 15.2817 23.8615 15.8262 24.9121 16.8214C25.9579 17.8165 26.5377 19.1309 26.5377 20.5344C26.5377 21.9379 25.9579 23.2523 24.9121 24.2474C23.8615 25.2379 22.4738 25.7871 20.9919 25.7871C19.5101 25.7871 18.1224 25.2379 17.0717 24.2474C16.026 23.2523 15.4462 21.9379 15.4462 20.5344C15.4462 19.1309 16.026 17.8165 17.0717 16.8214C17.5849 16.3316 18.1957 15.9432 18.8687 15.6789C19.5417 15.4146 20.2634 15.2796 20.9919 15.2817ZM0.558334 26.3363L3.79956 23.7123C3.64592 22.8204 3.56663 21.9098 3.56663 21.0038C3.56663 20.0978 3.64592 19.1825 3.79956 18.2953L0.558334 15.6713C0.313488 15.4728 0.138245 15.2083 0.055912 14.9132C-0.0264168 14.618 -0.0119362 14.3061 0.0974274 14.019L0.142029 13.8969C1.03405 11.5343 2.37063 9.34436 4.08701 7.43313L4.17622 7.33455C4.38464 7.10244 4.66242 6.93558 4.97296 6.85597C5.28349 6.77637 5.6122 6.78775 5.91578 6.88861L9.94005 8.24521C11.4269 7.09046 13.0822 6.1798 14.8762 5.54609L15.6543 1.56079C15.713 1.26057 15.8668 0.984367 16.0952 0.768885C16.3236 0.553404 16.6158 0.408842 16.933 0.354405L17.0668 0.330935C19.6439 -0.110312 22.3598 -0.110312 24.9369 0.330935L25.0707 0.354405C25.3879 0.408842 25.6801 0.553404 25.9085 0.768885C26.1369 0.984367 26.2907 1.26057 26.3494 1.56079L27.1324 5.56487C28.9095 6.20363 30.565 7.11208 32.0339 8.2546L36.0879 6.88861C36.3914 6.78694 36.7204 6.77516 37.0311 6.85481C37.3418 6.93446 37.6196 7.10179 37.8275 7.33455L37.9167 7.43313C39.63 9.3464 40.9663 11.5358 41.8617 13.8969L41.9063 14.019C42.1293 14.6057 41.9459 15.2629 41.4454 15.6713L38.1645 18.3235C38.3181 19.206 38.3925 20.1072 38.3925 20.9991C38.3925 21.9004 38.3181 22.8017 38.1645 23.6748L41.4355 26.3269C41.6803 26.5255 41.8555 26.7899 41.9379 27.085C42.0202 27.3802 42.0057 27.6921 41.8964 27.9793L41.8518 28.1013C40.9547 30.4624 39.6315 32.6452 37.9068 34.5651L37.8176 34.6637C37.6092 34.8958 37.3314 35.0626 37.0208 35.1422C36.7103 35.2219 36.3816 35.2105 36.078 35.1096L32.024 33.7436C30.5471 34.8937 28.9017 35.8043 27.1225 36.4334L26.3395 40.4374C26.2808 40.7377 26.127 41.0139 25.8986 41.2293C25.6702 41.4448 25.378 41.5894 25.0608 41.6438L24.927 41.6673C22.3245 42.1109 19.6593 42.1109 17.0569 41.6673L16.9231 41.6438C16.6059 41.5894 16.3137 41.4448 16.0853 41.2293C15.8569 41.0139 15.7031 40.7377 15.6444 40.4374L14.8663 36.4521C13.0722 35.8137 11.4169 34.9078 9.93014 33.753L5.90586 35.1096C5.60239 35.2113 5.27343 35.2231 4.96271 35.1434C4.65199 35.0638 4.37422 34.8964 4.16631 34.6637L4.0771 34.5651C2.35241 32.6358 1.02916 30.4624 0.132118 28.1013L0.0875168 27.9793C-0.125591 27.3972 0.0577774 26.7447 0.558334 26.3363ZM20.9919 28.7866C25.8042 28.7866 29.7046 25.0924 29.7046 20.5344C29.7046 15.9764 25.8042 12.2821 20.9919 12.2821C16.1797 12.2821 12.2793 15.9764 12.2793 20.5344C12.2793 25.0924 16.1797 28.7866 20.9919 28.7866Z" fill="#0F4DBC"/>
</svg>
